<svg width="21" height="20" viewBox="0 0 21 20" fill="none" xmlns="http://www.w3.org/2000/svg">
<path d="M18.1929 3.27137L18.1935 3.27196C18.6967 3.76067 19.0989 4.34182 19.3777 4.98276C19.6667 5.64966 19.8135 6.35525 19.8115 7.08211V7.08425C19.8115 7.76514 19.6715 8.49116 19.3801 9.24776L19.3794 9.24947C19.138 9.88085 18.7806 10.5509 18.3149 11.2412C17.5781 12.332 16.5511 13.4893 15.2538 14.6785C13.0974 16.6538 10.9621 18.0186 10.8844 18.0681L10.8842 18.0682L10.3235 18.4253C10.3235 18.4253 10.3235 18.4253 10.3234 18.4253C10.3222 18.4261 10.3197 18.4272 10.3158 18.4272C10.3118 18.4272 10.3094 18.4261 10.3081 18.4253C10.3081 18.4253 10.3081 18.4253 10.308 18.4253L9.74733 18.0682L9.7474 18.0681L9.73552 18.0608C9.73586 18.061 9.73567 18.0609 9.73488 18.0604C9.73234 18.0588 9.72369 18.0534 9.70737 18.0429C9.68787 18.0305 9.66053 18.0128 9.62583 17.9902C9.55647 17.9449 9.45853 17.8802 9.33604 17.7974C9.09103 17.6317 8.74868 17.3943 8.34105 17.0964C7.52465 16.4995 6.45237 15.664 5.37782 14.6786L5.37774 14.6785C4.08034 13.4891 3.05323 12.3317 2.31636 11.2409C1.85167 10.552 1.49584 9.88126 1.25132 9.24739C0.960021 8.49091 0.820068 7.76503 0.820068 7.08425C0.820068 6.35582 0.967265 5.64943 1.25631 4.98245C1.53417 4.34145 1.93614 3.76047 2.43971 3.27259L2.44073 3.2716C2.94846 2.7778 3.53901 2.39027 4.19545 2.1204L4.19626 2.12006C4.87515 1.84004 5.59383 1.69859 6.33917 1.69859C7.37244 1.69859 8.37882 1.9795 9.25235 2.50866L9.25238 2.50867C9.46137 2.63526 9.65932 2.77394 9.84651 2.9247L10.317 3.30362L10.7874 2.9247C10.9746 2.77394 11.1725 2.63526 11.3815 2.50867L11.3816 2.50866C12.2551 1.9795 13.2615 1.69859 14.2947 1.6986L14.2965 1.69859C15.0314 1.69691 15.7592 1.84022 16.4376 2.12006L16.4386 2.12046C17.0925 2.38913 17.6881 2.77993 18.1929 3.27137ZM10.9931 1.86737L10.9932 1.86756L10.9931 1.86737Z" fill="#6251DD" stroke="#6251DD" stroke-width="1.5"/>
</svg>
