<svg width="21" height="20" viewBox="0 0 21 20" fill="none" xmlns="http://www.w3.org/2000/svg">
<path d="M18.1928 3.27137L18.1934 3.27196C18.6966 3.76067 19.0988 4.34182 19.3776 4.98276C19.6666 5.64966 19.8134 6.35525 19.8113 7.08211V7.08425C19.8113 7.76514 19.6713 8.49116 19.3799 9.24776L19.3793 9.24947C19.1379 9.88085 18.7805 10.5509 18.3148 11.2412C17.578 12.332 16.5509 13.4893 15.2537 14.6785C13.0972 16.6538 10.9619 18.0186 10.8842 18.0681L10.8841 18.0682L10.3234 18.4253C10.3234 18.4253 10.3233 18.4253 10.3233 18.4253C10.322 18.4261 10.3196 18.4272 10.3156 18.4272C10.3117 18.4272 10.3093 18.4261 10.308 18.4253C10.308 18.4253 10.3079 18.4253 10.3079 18.4253L9.74721 18.0682L9.74727 18.0681L9.7354 18.0608C9.73574 18.061 9.73554 18.0609 9.73475 18.0604C9.73221 18.0588 9.72357 18.0534 9.70724 18.0429C9.68774 18.0305 9.66041 18.0128 9.62571 17.9902C9.55634 17.9449 9.4584 17.8802 9.33592 17.7974C9.09091 17.6317 8.74856 17.3943 8.34093 17.0964C7.52453 16.4995 6.45225 15.664 5.3777 14.6786L5.37762 14.6785C4.08021 13.4891 3.05311 12.3317 2.31624 11.2409C1.85155 10.552 1.49571 9.88126 1.2512 9.24739C0.959899 8.49091 0.819946 7.76503 0.819946 7.08425C0.819946 6.35582 0.967143 5.64943 1.25619 4.98245C1.53405 4.34145 1.93602 3.76047 2.43958 3.27259L2.44061 3.2716C2.94834 2.7778 3.53889 2.39027 4.19533 2.1204L4.19614 2.12006C4.87503 1.84004 5.59371 1.69859 6.33905 1.69859C7.37231 1.69859 8.3787 1.9795 9.25223 2.50866L9.25225 2.50867C9.46124 2.63526 9.65919 2.77394 9.84638 2.9247L10.3168 3.30362L10.7873 2.9247C10.9745 2.77394 11.1724 2.63526 11.3814 2.50867L11.3814 2.50866C12.255 1.9795 13.2614 1.69859 14.2946 1.6986L14.2963 1.69859C15.0313 1.69691 15.7591 1.84022 16.4375 2.12006L16.4385 2.12046C17.0924 2.38913 17.688 2.77993 18.1928 3.27137ZM10.993 1.86737L10.9931 1.86756L10.993 1.86737Z" stroke="#6251DD" stroke-width="1.5"/>
</svg>
